<svg xmlns="http://www.w3.org/2000/svg" viewBox="0 0 494.3 490.21"><g id="Layer_2" data-name="Layer 2"><g id="Layer_1-2" data-name="Layer 1"><path d="M0,375.32H0A114.89,114.89,0,0,0,114.89,490.21h5.27A114.89,114.89,0,0,0,235.05,375.32V260.43H114.89A114.89,114.89,0,0,0,0,375.32Z" fill="#b4b4c5"/><path d="M117.53,0h0A117.53,117.53,0,0,0,0,117.53V229.79H235.05V117.53A117.53,117.53,0,0,0,117.53,0Z" fill="#ffd176"/><rect x="259.24" y="260.43" width="235.05" height="229.79" rx="114.89" fill="#ffb640"/><path d="M384.59,0H259.24V120.08A109.71,109.71,0,0,0,369,229.79H494.3V109.71A109.71,109.71,0,0,0,384.59,0Z" fill="#e0e0e7"/></g></g></svg>